<svg width="37" height="50" viewBox="0 0 37 50" fill="none" xmlns="http://www.w3.org/2000/svg">
<path d="M36.5 31.22C36.5 35.9939 34.6036 40.5723 31.2279 43.9479C27.8523 47.3236 23.2739 49.22 18.5 49.22C13.7261 49.22 9.14773 47.3236 5.77208 43.9479C2.39642 40.5723 0.5 35.9939 0.5 31.22C0.5 23.2707 4.18787 15.5678 8.34243 9.83206C10.4166 6.96849 12.5949 4.61237 14.4622 2.97761C15.3965 2.15964 16.2445 1.52966 16.9555 1.10732C17.6879 0.672316 18.2057 0.5 18.5 0.5C18.7943 0.5 19.3121 0.672316 20.0445 1.10732C20.7555 1.52966 21.6035 2.15964 22.5378 2.97761C24.4051 4.61237 26.5834 6.96849 28.6576 9.83206C32.8121 15.5678 36.5 23.2707 36.5 31.22Z" fill="white" stroke="#595050"/>
<rect width="22.42" height="16.39" transform="translate(7.57999 22.19)" fill="white"/>
<path d="M16.3 26.93C16.3 30.25 14.2 31.98 11.9 31.98C9.59999 31.98 7.57999 30.17 7.57999 27.19C7.57999 24.21 9.30999 22.19 12.02 22.19C14.73 22.19 16.3 24.22 16.3 26.93ZM10.3 27.1C10.3 28.76 10.86 29.96 11.94 29.96C13.02 29.96 13.5 28.89 13.5 27.1C13.5 25.49 13.06 24.24 11.91 24.24C10.76 24.24 10.34 25.52 10.34 27.1H10.3ZM30 33.53C30 36.85 27.9 38.58 25.6 38.58C23.3 38.58 21.3 36.77 21.28 33.79C21.26 30.81 23.01 28.79 25.72 28.79C28.43 28.79 30 30.86 30 33.53ZM24.07 33.7C24.07 35.36 24.61 36.56 25.68 36.56C26.75 36.56 27.24 35.49 27.24 33.7C27.24 32.09 26.82 30.84 25.68 30.84C24.54 30.84 24.11 32.11 24.11 33.7H24.07Z" fill="#595050"/>
<path d="M23.7 22.55L14.45 37.58" stroke="#595050" stroke-width="2" stroke-linecap="round" stroke-linejoin="round"/>
</svg>
